<?xml version="1.0" encoding="utf-8"?>
<!-- Generator: Adobe Illustrator 21.0.1, SVG Export Plug-In . SVG Version: 6.00 Build 0)  -->
<svg version="1.1" id="Layer_1" xmlns="http://www.w3.org/2000/svg" xmlns:xlink="http://www.w3.org/1999/xlink" x="0px" y="0px"
	 viewBox="0 0 140 32" style="enable-background:new 0 0 140 32;" xml:space="preserve">
<style type="text/css">
	.Drop_x0020_Shadow{fill:none;}
	.Round_x0020_Corners_x0020_2_x0020_pt{fill:#FFFFFF;stroke:#231F20;stroke-miterlimit:10;}
	.Live_x0020_Reflect_x0020_X{fill:none;}
	.Bevel_x0020_Soft{fill:url(#SVGID_1_);}
	.Dusk{fill:#FFFFFF;}
	.Foliage_GS{fill:#FFDD00;}
	.Pompadour_GS{fill-rule:evenodd;clip-rule:evenodd;fill:#44ADE2;}
	.st0{fill:#404040;}
	.st1{fill:#009BFF;}
</style>
<linearGradient id="SVGID_1_" gradientUnits="userSpaceOnUse" x1="0.01" y1="-1" x2="0.7171" y2="-0.2929">
	<stop  offset="0" style="stop-color:#DEDFE3"/>
	<stop  offset="0.1783" style="stop-color:#DADBDF"/>
	<stop  offset="0.3611" style="stop-color:#CECFD3"/>
	<stop  offset="0.546" style="stop-color:#B9BCBF"/>
	<stop  offset="0.7324" style="stop-color:#9CA0A2"/>
	<stop  offset="0.9181" style="stop-color:#787D7E"/>
	<stop  offset="1" style="stop-color:#656B6C"/>
</linearGradient>
<g>
	<g>
		<path class="st1" d="M9.58,25.3l-0.27-1.98c-0.99,1.58-2.48,2.37-4.5,2.37c-0.89,0-1.69-0.19-2.41-0.58
			c-0.72-0.38-1.29-0.91-1.72-1.58c-0.42-0.67-0.64-1.45-0.64-2.34c0-1.68,0.66-2.98,1.97-3.91c1.31-0.93,3.04-1.39,5.19-1.39
			c0.67,0,1.38,0.06,2.13,0.18c-0.08-0.75-0.4-1.32-0.96-1.7c-0.56-0.38-1.25-0.58-2.06-0.58c-0.71,0-1.43,0.13-2.14,0.4
			c-0.72,0.27-1.41,0.59-2.06,0.96l-1.75-3.31c0.99-0.63,2.05-1.12,3.2-1.46C4.71,10.03,5.86,9.85,7,9.85
			c1.38,0,2.62,0.24,3.73,0.71c1.1,0.47,1.97,1.19,2.6,2.16c0.63,0.97,0.95,2.19,0.95,3.67v8.91H9.58z M5.05,20.41
			c0,0.45,0.17,0.82,0.5,1.11c0.34,0.29,0.77,0.43,1.3,0.43c0.71,0,1.31-0.24,1.79-0.72c0.48-0.48,0.72-1.09,0.72-1.82v-0.5
			c-0.53-0.1-1.09-0.15-1.69-0.15c-0.75,0-1.38,0.13-1.88,0.38C5.3,19.4,5.05,19.82,5.05,20.41z"/>
		<path class="st1" d="M29.93,21.45v3.85H16.59v-3.22l6.86-7.99h-6.42v-3.85H29.7v3.22l-6.8,7.99H29.93z"/>
		<path class="st0" d="M39.4,25.68c-1.54,0-2.9-0.33-4.1-0.99c-1.19-0.66-2.14-1.58-2.83-2.77c-0.69-1.18-1.04-2.56-1.04-4.14
			c0-1.58,0.34-2.96,1.04-4.14c0.69-1.18,1.63-2.11,2.83-2.77c1.19-0.66,2.56-0.99,4.1-0.99c1.36,0,2.55,0.25,3.58,0.75
			c1.03,0.5,1.93,1.31,2.72,2.41l-3.4,2.49c-0.28-0.41-0.64-0.75-1.08-1.02c-0.44-0.27-0.92-0.4-1.43-0.4
			c-0.89,0-1.63,0.33-2.22,0.99c-0.59,0.66-0.89,1.55-0.89,2.68c0,1.12,0.3,2.02,0.89,2.68c0.59,0.66,1.33,0.99,2.22,0.99
			c0.51,0,0.99-0.13,1.43-0.4c0.44-0.27,0.8-0.61,1.08-1.02l3.4,2.49c-0.79,1.1-1.7,1.91-2.72,2.41
			C41.96,25.43,40.76,25.68,39.4,25.68z"/>
		<path class="st0" d="M61.69,23.76c-0.75,0.53-1.7,0.99-2.86,1.36c-1.15,0.37-2.38,0.56-3.68,0.56c-1.8,0-3.33-0.33-4.6-0.99
			c-1.27-0.66-2.25-1.58-2.93-2.77c-0.68-1.18-1.02-2.54-1.02-4.08c0-1.56,0.34-2.94,1.01-4.14c0.67-1.2,1.6-2.15,2.78-2.83
			c1.18-0.68,2.56-1.02,4.14-1.02c1.54,0,2.89,0.33,4.07,0.99c1.17,0.66,2.09,1.58,2.75,2.75c0.66,1.17,0.99,2.55,0.99,4.13
			c0,0.22-0.01,0.44-0.04,0.68c-0.03,0.24-0.06,0.48-0.1,0.74h-10.5c0.47,1.74,1.76,2.6,3.88,2.6c0.95,0,1.78-0.15,2.51-0.44
			c0.73-0.3,1.34-0.59,1.83-0.89L61.69,23.76z M54.65,13.58c-1.68,0-2.68,0.89-3.02,2.66h5.74c-0.14-0.97-0.47-1.65-0.99-2.06
			C55.86,13.78,55.28,13.58,54.65,13.58z"/>
		<path class="st0" d="M70.02,16.98v8.31h-5.15V10.24h4.7l0.27,1.98c0.49-0.71,1.13-1.28,1.92-1.72c0.79-0.43,1.66-0.65,2.6-0.65
			c1.64,0,2.95,0.53,3.94,1.6c0.99,1.07,1.48,2.59,1.48,4.59v9.26h-5.15v-8.67c0-0.89-0.2-1.54-0.59-1.97
			c-0.39-0.42-0.95-0.64-1.66-0.64s-1.28,0.23-1.72,0.68C70.24,15.16,70.02,15.92,70.02,16.98z"/>
		<path class="st0" d="M93.82,24.32c-0.61,0.41-1.31,0.74-2.1,0.99c-0.79,0.25-1.62,0.37-2.49,0.37c-1.62,0-2.9-0.47-3.86-1.41
			c-0.96-0.94-1.43-2.19-1.43-3.77v-6.42h-2.46v-3.85h2.69l0.65-4.2h4.26v4.2h3.94v3.85h-3.94v5.77c0,0.51,0.15,0.91,0.46,1.2
			c0.31,0.29,0.71,0.43,1.23,0.43c0.26,0,0.52-0.05,0.78-0.15c0.27-0.1,0.52-0.22,0.75-0.36L93.82,24.32z"/>
		<path class="st0" d="M101.12,19.47v5.83h-5.15V10.24h4.7l0.33,2.51c0.32-0.81,0.83-1.46,1.55-1.97c0.72-0.5,1.55-0.75,2.5-0.75
			c0.53,0,0.94,0.07,1.21,0.21v4.7c-0.22-0.08-0.46-0.14-0.72-0.18c-0.27-0.04-0.57-0.06-0.9-0.06c-1.03,0-1.87,0.38-2.53,1.14
			C101.45,16.6,101.12,17.81,101.12,19.47z"/>
		<path class="st0" d="M117.11,25.3l-0.27-1.98c-0.99,1.58-2.49,2.37-4.5,2.37c-0.89,0-1.69-0.19-2.41-0.58
			c-0.72-0.38-1.29-0.91-1.72-1.58c-0.42-0.67-0.64-1.45-0.64-2.34c0-1.68,0.66-2.98,1.97-3.91c1.31-0.93,3.04-1.39,5.19-1.39
			c0.67,0,1.38,0.06,2.13,0.18c-0.08-0.75-0.4-1.32-0.96-1.7c-0.56-0.38-1.25-0.58-2.06-0.58c-0.71,0-1.43,0.13-2.15,0.4
			c-0.72,0.27-1.41,0.59-2.06,0.96l-1.75-3.31c0.99-0.63,2.05-1.12,3.2-1.46c1.14-0.34,2.29-0.52,3.43-0.52
			c1.38,0,2.62,0.24,3.73,0.71c1.1,0.47,1.97,1.19,2.6,2.16c0.63,0.97,0.95,2.19,0.95,3.67v8.91H117.11z M112.58,20.41
			c0,0.45,0.17,0.82,0.5,1.11c0.34,0.29,0.77,0.43,1.3,0.43c0.71,0,1.31-0.24,1.79-0.72c0.48-0.48,0.72-1.09,0.72-1.82v-0.5
			c-0.53-0.1-1.09-0.15-1.69-0.15c-0.75,0-1.38,0.13-1.88,0.38C112.83,19.4,112.58,19.82,112.58,20.41z"/>
		<path class="st0" d="M125.02,25.3V3.7h5.15v21.6H125.02z"/>
		<path class="st1" d="M136.52,25.62c-0.63,0-1.21-0.15-1.73-0.46c-0.52-0.31-0.94-0.72-1.24-1.24c-0.31-0.52-0.46-1.1-0.46-1.73
			s0.15-1.21,0.46-1.73c0.31-0.52,0.72-0.94,1.24-1.24c0.52-0.31,1.1-0.46,1.73-0.46c0.63,0,1.21,0.15,1.73,0.46
			c0.52,0.31,0.94,0.72,1.24,1.24c0.31,0.52,0.46,1.1,0.46,1.73s-0.15,1.21-0.46,1.73c-0.31,0.52-0.72,0.94-1.24,1.24
			C137.73,25.47,137.15,25.62,136.52,25.62z"/>
	</g>
</g>
</svg>
