<?xml version="1.0" standalone="no"?>
<!DOCTYPE svg PUBLIC "-//W3C//DTD SVG 20010904//EN"
 "http://www.w3.org/TR/2001/REC-SVG-20010904/DTD/svg10.dtd">
<svg version="1.0" xmlns="http://www.w3.org/2000/svg"
 width="500.000000pt" height="500.000000pt" viewBox="0 0 500.000000 500.000000"
 preserveAspectRatio="xMidYMid meet">

<g transform="translate(0.000000,500.000000) scale(0.100000,-0.100000)"
fill="#000000" stroke="none">
<path d="M2974 3753 c23 -4 26 -7 15 -15 -10 -7 -5 -7 16 -2 17 4 55 11 85 14
45 6 37 7 -45 7 -55 0 -87 -2 -71 -4z"/>
<path d="M2440 3725 c-26 -7 -39 -14 -30 -17 8 -3 2 -4 -15 -2 -22 3 -26 1
-15 -6 8 -5 11 -10 6 -10 -5 0 -17 6 -25 14 -9 7 -27 17 -41 20 -24 7 -24 6 5
-18 35 -30 32 -30 110 -11 33 8 75 14 93 15 17 0 32 4 32 9 0 5 10 11 23 13
12 2 -5 4 -38 5 -33 0 -80 -5 -105 -12z"/>
<path d="M2855 3732 c-16 -12 -16 -32 0 -26 8 4 15 12 15 20 0 16 -1 16 -15 6z"/>
<path d="M2810 3709 c0 -5 -4 -8 -9 -4 -6 3 -25 -1 -43 -9 -30 -13 -31 -14 -8
-14 44 0 68 7 74 23 3 8 1 15 -4 15 -6 0 -10 -5 -10 -11z"/>
<path d="M3468 3601 c8 -4 14 -12 15 -17 1 -5 6 -8 11 -6 4 1 13 -1 20 -5 7
-4 0 2 -14 14 -14 13 -29 23 -35 23 -5 0 -4 -4 3 -9z"/>
<path d="M3000 3544 c0 -5 14 -25 30 -44 l30 -35 -25 40 c-31 47 -35 51 -35
39z"/>
<path d="M1545 3510 c-3 -5 -3 -10 0 -10 3 0 0 -6 -7 -14 -7 -8 -17 -11 -22
-8 -5 3 -6 0 -3 -5 4 -6 -3 -13 -15 -16 -18 -5 -19 -8 -8 -21 11 -15 7 -20
-13 -17 -5 1 -6 -3 -2 -9 5 -8 11 -7 21 1 12 9 12 15 2 27 -11 13 -10 15 3 10
10 -4 29 8 55 35 21 23 32 36 24 30 -17 -15 -34 -17 -25 -3 3 6 4 10 1 10 -3
0 -8 -4 -11 -10z"/>
<path d="M3650 3422 c0 -12 19 -26 26 -19 2 2 -2 10 -11 17 -9 8 -15 8 -15 2z"/>
<path d="M1419 3359 c-8 -15 -8 -19 0 -15 6 4 11 2 11 -3 0 -6 -4 -11 -10 -11
-5 0 -10 -8 -10 -18 0 -10 -6 -24 -12 -31 -11 -11 -10 -12 0 -6 16 9 35 52 37
83 1 27 -1 28 -16 1z"/>
<path d="M2460 3206 c0 -20 201 -17 208 2 3 11 0 12 -16 3 -14 -7 -36 -8 -73
-1 -74 14 -119 13 -119 -4z"/>
<path d="M2224 3117 c-17 -12 -57 -46 -90 -76 -59 -54 -53 -51 47 25 74 56
110 99 43 51z"/>
<path d="M2870 3115 c7 -8 20 -15 30 -15 9 0 25 -9 36 -21 10 -11 28 -25 39
-30 11 -6 3 6 -18 25 -41 37 -111 70 -87 41z"/>
<path d="M3016 3002 c-7 -12 22 -38 31 -28 4 3 0 14 -9 22 -9 10 -18 12 -22 6z"/>
<path d="M3515 2448 c-16 -22 -38 -47 -47 -55 -9 -9 -15 -20 -12 -25 3 -4 -1
-8 -8 -8 -8 0 -39 -26 -69 -57 -58 -60 -81 -97 -53 -86 9 3 13 12 9 21 -3 9
-3 13 1 9 10 -9 184 162 184 180 0 7 9 22 20 33 10 10 16 21 12 23 -4 3 -20
-13 -37 -35z"/>
<path d="M1636 2400 c42 -44 52 -56 69 -82 9 -16 24 -28 31 -28 8 0 14 -4 14
-8 0 -9 98 -120 138 -156 13 -12 39 -38 59 -58 20 -21 40 -35 45 -32 5 3 7 0
6 -8 -2 -7 3 -12 10 -10 6 1 11 -2 10 -6 -2 -5 21 -32 50 -59 28 -28 52 -48
52 -45 0 4 8 -5 17 -18 10 -14 16 -29 15 -35 -2 -5 4 -3 13 6 15 14 -7 38
-256 287 -150 150 -277 272 -283 272 -5 0 -1 -9 10 -20z"/>
<path d="M2060 2365 c0 -5 5 -17 10 -25 5 -8 10 -10 10 -5 0 6 -5 17 -10 25
-5 8 -10 11 -10 5z"/>
<path d="M3895 2327 c-5 -7 -23 -32 -39 -57 -16 -25 -55 -70 -85 -100 -31 -31
-85 -86 -120 -124 -145 -153 -666 -641 -614 -575 7 9 10 19 6 22 -3 4 0 13 7
22 10 12 10 15 0 15 -9 0 -7 7 5 20 19 21 7 28 -13 8 -9 -9 -12 -7 -12 10 0
12 -4 22 -8 22 -4 0 -7 12 -6 28 3 39 3 39 14 22 8 -12 9 -10 7 7 -2 12 -7 26
-12 30 -4 5 -5 3 -2 -3 4 -7 0 -17 -8 -24 -8 -7 -15 -18 -15 -25 0 -9 -8 -11
-22 -7 -16 4 -19 2 -13 -8 6 -10 4 -12 -9 -7 -13 5 -19 1 -23 -13 -3 -11 -9
-18 -13 -15 -5 3 -58 -43 -118 -103 -214 -212 -253 -218 -407 -66 -106 105
-205 189 -220 188 -6 -1 -12 5 -12 12 0 7 5 10 11 7 6 -3 0 6 -14 19 -14 14
-28 21 -31 15 -8 -12 -22 9 -15 22 4 5 -4 7 -16 5 -13 -2 -17 -1 -10 2 8 4 -3
14 -30 29 -48 26 -70 23 -38 -5 11 -9 20 -29 20 -44 0 -22 4 -26 33 -27 l32
-1 -37 -10 c-42 -11 -52 -28 -13 -20 14 2 25 0 25 -6 0 -5 -21 -13 -46 -17
l-46 -7 28 -31 c42 -45 -1 -11 -64 51 -46 47 -51 56 -40 70 12 15 11 16 -5 3
-9 -8 -20 -11 -24 -7 -4 3 -97 95 -207 204 -111 109 -245 244 -299 301 -53 57
-97 98 -97 93 0 -19 12 -42 20 -37 4 3 7 -3 6 -13 0 -10 6 -16 16 -16 10 1 15
-2 12 -7 -3 -5 8 -26 23 -46 45 -60 801 -813 872 -868 36 -27 83 -67 105 -87
86 -79 249 -111 346 -67 78 35 189 128 385 319 105 103 228 223 275 267 209
198 235 224 232 233 -1 6 5 10 13 10 8 0 15 4 15 9 0 5 21 31 47 58 26 26 46
51 45 55 -1 4 13 19 31 34 17 15 32 30 32 33 1 3 31 37 68 75 40 40 66 74 63
82 -3 8 -2 14 2 14 4 0 13 9 20 20 13 22 3 27 -13 7z m-2514 -184 c13 -16 12
-17 -3 -4 -17 13 -22 21 -14 21 2 0 10 -8 17 -17z m696 -586 c0 -7 -8 -13 -18
-13 -9 0 -15 6 -12 13 3 7 11 13 17 13 7 0 13 -6 13 -13z m933 -17 c0 -5 -4
-10 -10 -10 -5 0 -10 5 -10 10 0 6 5 10 10 10 6 0 10 -4 10 -10z"/>
<path d="M2095 2290 c9 -17 14 -34 11 -39 -3 -4 13 -27 35 -49 22 -23 37 -42
33 -42 -4 0 4 -9 17 -21 13 -11 39 -34 58 -50 63 -56 174 -100 286 -114 79
-11 218 29 310 87 42 27 101 74 116 93 10 11 29 34 44 50 31 36 69 105 61 113
-3 3 -6 0 -6 -7 0 -7 -4 -10 -9 -7 -5 3 -19 -10 -31 -30 -63 -108 -172 -192
-312 -241 -88 -31 -149 -33 -245 -9 -127 32 -287 147 -350 254 -29 48 -41 57
-18 12z"/>
<path d="M3266 2183 c-6 -14 -5 -15 5 -6 7 7 10 15 7 18 -3 3 -9 -2 -12 -12z"/>
<path d="M3239 2163 c-1 -4 -1 -11 0 -15 0 -4 -8 -10 -19 -13 -25 -8 -185
-170 -185 -187 0 -7 -6 -14 -12 -14 -7 -1 -17 -2 -22 -3 -5 0 -12 -9 -15 -18
-6 -15 -4 -15 14 2 11 10 20 14 20 10 0 -5 13 4 30 20 16 15 27 31 25 35 -2 3
6 13 17 21 52 34 171 156 160 163 -7 4 -13 4 -13 -1z"/>
<path d="M3076 2129 c-14 -16 -29 -36 -33 -43 -18 -28 -170 -148 -220 -172
-58 -29 -70 -39 -50 -47 18 -7 80 16 125 45 20 14 54 36 75 49 20 13 40 32 43
42 3 9 10 17 15 17 6 0 8 4 5 9 -4 5 -3 11 1 13 11 4 67 90 69 106 3 18 -2 15
-30 -19z"/>
<path d="M2039 2113 c12 -18 26 -35 31 -38 6 -4 10 -11 10 -16 0 -6 -5 -7 -12
-3 -7 4 -8 3 -4 -5 4 -6 12 -9 17 -6 5 4 9 -1 9 -10 0 -24 90 -116 130 -133
45 -19 145 -29 136 -13 -4 6 -13 11 -21 11 -21 0 -235 156 -279 203 -31 34
-34 36 -17 10z"/>
<path d="M2175 1860 c-8 -13 34 -62 46 -54 5 3 9 -1 9 -9 0 -19 46 -60 60 -52
6 3 9 1 8 -6 -2 -7 4 -13 12 -14 8 0 20 -11 27 -25 7 -14 17 -24 23 -23 5 2 9
-1 7 -6 -3 -12 138 -159 166 -172 19 -8 31 -8 53 4 30 16 172 150 212 202 12
15 32 33 45 39 12 6 27 21 33 34 6 12 14 19 19 14 5 -4 5 -1 1 6 -4 6 -3 12 1
12 5 0 14 10 22 23 15 24 -11 2 -134 -114 -206 -196 -204 -194 -252 -174 -17
7 -78 60 -135 117 -167 167 -215 210 -223 198z m30 -30 c10 -11 16 -20 13 -20
-3 0 -13 9 -23 20 -10 11 -16 20 -13 20 3 0 13 -9 23 -20z"/>
<path d="M2000 1660 c0 -5 5 -10 10 -10 6 0 10 5 10 10 0 6 -4 10 -10 10 -5 0
-10 -4 -10 -10z"/>
<path d="M1977 1589 c7 -7 15 -10 18 -7 3 3 -2 9 -12 12 -14 6 -15 5 -6 -5z"/>
</g>
</svg>
