<svg width="32" height="32" viewBox="0 0 32 32" fill="none" xmlns="http://www.w3.org/2000/svg">
<path d="M12.4347 2.83041C13.1892 2.79348 13.2819 3.7253 12.6169 3.90329C11.8842 3.97285 11.7589 3.00583 12.4347 2.83041Z" fill="#06222A"/>
<path d="M26.9781 26.0059C27.6784 26.0495 27.6972 27.0119 26.9781 27.0957C26.2409 27.0277 26.2471 26.086 26.9781 26.0059Z" fill="#06222A"/>
<path d="M28.7528 15.6914C29.4822 15.6147 29.6888 16.5877 28.9947 16.7773C28.2872 16.8781 28.1074 15.9114 28.7528 15.6914Z" fill="#06222A"/>
<path d="M18.977 28.1431C19.7243 28.0786 19.9405 28.9986 19.2575 29.2107C18.5884 29.3997 18.2097 28.4634 18.977 28.1431Z" fill="#06222A"/>
<path d="M6.07827 6.34175C6.26963 6.1385 6.73376 5.77347 6.8162 6.29931C6.84576 6.48775 6.65351 6.64275 6.54907 6.78056C6.82938 6.98306 6.94188 7.30294 6.57695 7.46287C6.36776 7.47569 6.22412 7.28487 6.07827 7.15994C5.95425 7.31681 5.87315 7.4065 5.67678 7.46287C5.16693 7.29144 5.43324 6.97137 5.67678 6.703C5.37165 6.517 5.21211 6.13834 5.67678 6.03397C5.85742 6.06299 5.97592 6.20245 6.07827 6.34175Z" fill="#2A9A0A"/>
<path d="M28.2215 4.34698C28.7398 4.39548 28.479 4.86154 28.2215 5.08799C28.9453 5.80093 28.1225 6.04339 27.8078 5.52187C27.6699 5.61002 27.5556 5.76088 27.4009 5.81475C26.8588 5.83133 27.0498 5.35287 27.4009 5.08799C27.0418 4.86882 26.8975 4.38231 27.3191 4.36215C27.5388 4.35165 27.6641 4.518 27.8078 4.65643C27.9367 4.50747 28.0154 4.38517 28.2215 4.34698Z" fill="#2A9A0A"/>
<path d="M24.216 18.7657C24.6458 18.7319 26.8208 18.729 27.0213 18.827C27.3768 19.0008 27.2482 19.4661 26.8748 19.578L25.1262 19.5768C24.792 19.5766 24.0164 19.717 23.8863 19.2864C23.8118 19.0399 23.9877 18.8309 24.216 18.7657Z" fill="#06222A"/>
<path d="M22.5287 21.7037C23.1739 21.6748 23.3248 22.9014 23.5062 23.442C23.6723 23.9369 24.1705 24.7091 23.5707 25.0019C22.9502 25.1004 22.7579 23.7867 22.5971 23.3041C22.4455 22.8491 21.9067 21.915 22.5287 21.7037Z" fill="#06222A"/>
<path d="M24.1141 20.4555C24.1833 20.4521 24.2538 20.4552 24.3231 20.4555C24.4979 20.5518 26.5671 22.5377 26.6222 22.6702C26.7306 22.9309 26.5488 23.148 26.3205 23.2482C25.8992 23.2397 25.5172 22.6942 25.2346 22.4235L24.3766 21.6019C24.1831 21.4152 23.9321 21.2218 23.7976 20.9894C23.7898 20.7204 23.8606 20.5764 24.1141 20.4555Z" fill="#06222A"/>
<path d="M19.687 2.58359C20.517 2.53617 20.9785 3.23546 21.5074 3.75955L27.1544 9.42596C27.8216 10.1038 29.2064 11.0476 28.3645 12.0972C28.2389 12.2538 28.0864 12.3925 27.9435 12.5334L24.6121 15.7994C24.1746 16.2279 23.7537 16.674 23.3234 17.1097L21.5975 18.8309C21.2322 19.1947 20.8806 19.5688 20.5006 19.9176L20.5008 22.1695C20.5011 22.6574 20.5545 23.2698 20.4408 23.739C20.1218 25.0545 19.0943 25.2635 17.9733 25.2595L12.711 25.258C12.6086 25.3773 12.4954 25.4884 12.3719 25.5858C13.2898 26.2845 13.0544 26.8648 12.3793 27.536L11.0684 28.8468C10.8788 29.0371 10.6834 29.2616 10.4559 29.4058C9.7872 29.7523 9.3577 29.223 8.9297 28.8015L3.48123 23.3625C3.27266 23.1568 3.02826 22.959 2.85956 22.7189C2.26717 21.8759 3.01375 21.2856 3.52797 20.7558L4.30344 19.9695C5.02765 19.231 5.82068 18.6488 6.54907 19.7683C6.74863 19.535 6.96595 19.3166 7.17876 19.0954C7.07601 18.7015 7.01645 18.2912 6.94207 17.8909L6.20452 13.8868C6.15578 13.6086 6.07601 13.3089 6.07393 13.0263C6.06784 12.1995 6.6457 11.4222 7.45038 11.2143C7.89545 11.0993 8.5002 11.1491 8.96532 11.1491L10.9711 11.1498C11.0854 10.7416 11.3584 10.5245 11.6483 10.2353L18.5604 3.29046C18.9133 2.93199 19.1563 2.65098 19.687 2.58359ZM20.571 4.04387C20.5161 4.06405 20.4906 4.06346 20.4343 4.04387C19.7268 4.06345 19.3414 4.41592 18.8649 4.87725C18.2656 5.45757 17.678 6.05462 17.0873 6.64402L14.0375 9.70127C13.6123 10.1221 12.7491 10.771 12.7661 11.4195C12.7942 12.4842 14.2174 13.1375 14.5913 13.856C14.5363 14.0171 14.4713 14.1505 14.3454 14.2691C13.8829 14.7981 13.2277 15.4114 12.7171 15.9197C12.5219 16.114 12.2949 16.2875 12.1297 16.5088C12.2272 16.5481 12.4245 16.853 12.503 16.9415C12.8748 17.3606 13.3234 17.7214 13.6638 18.1666C14.0099 17.8318 15.7428 15.9748 16.0778 15.8585L16.1074 15.8558C16.2085 15.846 16.3076 15.8199 16.4092 15.8137C17.0773 15.7727 18.222 17.0594 18.7122 17.5673C19.0878 17.9565 19.5528 18.5483 20.0848 18.7217C20.1654 18.748 20.3811 18.7758 20.4343 18.8166C21.0652 18.215 21.6681 17.5907 22.2827 16.9733L26.8818 12.4195C27.3111 11.9982 27.8531 11.7446 27.7578 11.1498C27.5334 10.9684 27.3318 10.7485 27.1276 10.5446L22.0203 5.43419C21.7622 5.17533 20.8398 4.17684 20.571 4.04387ZM4.8446 20.6036L10.8775 26.6533C11.0839 26.8596 11.3088 27.0491 11.4879 27.2805C11.6896 27.0905 12.0101 26.8096 12.1297 26.5612L12.1169 26.537C11.9448 26.2081 10.9453 25.2742 10.6239 24.9551L8.84813 23.1816C7.84313 22.1805 6.86338 21.15 5.84432 20.1633C5.40754 19.7404 5.17999 20.2212 4.8446 20.6036ZM20.4343 3.90331C20.4083 3.96237 20.404 3.98756 20.4343 4.04387C20.4906 4.06346 20.5161 4.06405 20.571 4.04387L20.4343 3.90331Z" fill="#06222A"/>
<path d="M18.8021 19.7682C19.1021 19.9384 19.3416 20.0608 19.687 20.1089V22.8306C19.3922 22.8372 19.0971 22.823 18.8021 22.8306C18.8021 22.4969 18.7813 19.825 18.8021 19.7682Z" fill="#ECF524"/>
<path d="M12.1297 16.5088C12.2272 16.548 12.4245 16.853 12.503 16.9414C12.8747 17.3605 13.3234 17.7214 13.6638 18.1665C13.319 18.5382 12.9597 18.8492 12.4082 18.777C11.1866 18.6171 11.1157 17.2559 12.1297 16.5088Z" fill="#D9E7E2"/>
<path d="M16.0778 15.8585L16.1074 15.8558C16.2085 15.846 16.3076 15.8199 16.4092 15.8137C17.0773 15.7727 18.222 17.0594 18.7122 17.5673C19.0878 17.9565 19.5528 18.5483 20.0848 18.7217C20.1654 18.748 20.3811 18.7758 20.4343 18.8166C19.6494 19.7636 19.4031 19.1598 18.7048 18.465L17.6323 17.3917C17.2929 17.0532 16.3639 16.0197 16.0778 15.8585Z" fill="#D9E7E2"/>
<path d="M14.3454 14.2691C13.9977 14.0065 13.6646 13.5804 13.3529 13.2674L12.4065 12.3326C12.0371 11.9681 11.4822 11.5981 11.9703 11.0722C12.2239 10.7991 12.5013 10.5435 12.7635 10.2781L18.7282 4.28386C19.2441 3.75465 19.8274 2.8297 20.4342 3.90328C20.4083 3.96234 20.404 3.98753 20.4342 4.04384C19.7268 4.06342 19.3414 4.41589 18.8649 4.87722C18.2656 5.45754 17.678 6.05459 17.0872 6.64399L14.0375 9.70124C13.6122 10.1221 12.7491 10.7709 12.7661 11.4195C12.7942 12.4842 14.2174 13.1375 14.5912 13.8559C14.5362 14.0171 14.4712 14.1504 14.3454 14.2691Z" fill="#D9E7E2"/>
<path d="M4.08205 21.356C4.7056 21.9358 5.29568 22.5552 5.89192 23.1628L9.91141 27.1567C10.1955 27.4398 10.4989 27.6923 10.7577 28.001C10.5296 28.246 10.286 28.5075 10.0211 28.7129C8.67835 27.411 7.3686 26.0729 6.04326 24.7536L4.57229 23.291C4.42916 23.1503 3.47591 22.2886 3.46838 22.1303C3.45785 21.909 3.92271 21.5069 4.08205 21.356Z" fill="#2A9A0A"/>
<path d="M4.84462 20.6036L10.8775 26.6533C11.0839 26.8596 11.3088 27.0491 11.4879 27.2805C11.2478 27.5238 10.9987 27.7583 10.7578 28.001C10.499 27.6923 10.1955 27.4398 9.91146 27.1567L5.89197 23.1628C5.29572 22.5552 4.70565 21.9358 4.08209 21.356C4.34287 21.1121 4.59278 20.8567 4.84462 20.6036Z" fill="#90DA0B"/>
<path d="M8.02095 19.4897C8.00495 18.8533 7.8177 18.1153 7.70283 17.4888C7.51502 16.4645 7.33858 15.4398 7.13727 14.4179C6.98745 13.6572 6.58052 12.7618 7.30358 12.1942C7.62852 11.9392 8.67464 11.9229 9.12108 11.976C8.95583 12.1604 8.27264 12.8549 8.21745 13.01L8.22295 13.0267C8.53702 14.0053 8.73158 15.4956 8.91314 16.5286C9.04627 17.2862 9.16495 18.079 9.39327 18.8141C10.0668 20.9825 11.9812 22.7137 14.214 23.1345C14.4856 23.1857 14.7603 23.2039 15.0323 23.2482C15.0068 23.0367 15.0868 22.901 15.2356 22.7514C15.6028 22.7306 16.999 22.697 17.2526 22.8305C17.4515 22.8442 17.6441 22.8468 17.8433 22.8305C18.094 22.685 18.489 22.7342 18.749 22.8305H18.8021C19.0971 22.823 19.3923 22.8372 19.687 22.8305C19.7155 24.107 19.2615 24.445 18.0461 24.4443L13.6799 24.445C12.5504 24.4481 12.5728 24.192 11.7893 25.0019C11.503 24.6643 11.1833 24.3713 10.8739 24.0565L8.39295 21.5699C7.98295 21.1573 7.55758 20.7676 7.17877 20.324C7.44483 20.0367 7.72577 19.7475 8.02095 19.4897Z" fill="#2A9A0A"/>
<path d="M17.8432 22.8306C18.0939 22.685 18.489 22.7343 18.749 22.8306C19.4671 23.7614 17.166 23.8432 17.8432 22.8306Z" fill="#06222A"/>
<path d="M15.2357 22.7514C15.6028 22.7306 16.999 22.697 17.2526 22.8305C17.3394 23.0137 17.377 23.1606 17.3068 23.3585L17.2998 23.3775C17.0082 23.6597 15.9455 23.5404 15.5197 23.533C15.286 23.5289 15.1387 23.457 15.0323 23.2482C15.0068 23.0367 15.0868 22.901 15.2357 22.7514Z" fill="#06222A"/>
<path d="M9.12103 11.976C9.76634 11.9633 10.4127 11.9908 11.0579 11.976C11.3022 12.5009 11.5339 12.5999 11.8617 13.01C12.198 13.2122 12.8401 13.9669 13.1885 14.2691L11.6647 15.7972C11.0792 16.3818 10.5803 16.7444 10.5758 17.6722C10.5667 19.5397 12.79 20.2711 14.1909 18.8151C14.6863 18.3002 15.5278 17.3717 16.0777 16.9657C16.2538 17.2087 16.5057 17.4248 16.7165 17.6388C17.0413 17.9685 18.6313 19.4452 18.802 19.7682C18.7813 19.825 18.8021 22.4969 18.802 22.8305H18.749C18.489 22.7342 18.0939 22.685 17.8432 22.8305C17.6441 22.8468 17.4515 22.8442 17.2525 22.8305C16.999 22.697 15.6027 22.7306 15.2356 22.7514C15.0867 22.901 15.0068 23.0367 15.0323 23.2482C14.7602 23.2039 14.4856 23.1857 14.2139 23.1345C11.9812 22.7137 10.0667 20.9825 9.39322 18.8141C9.16491 18.079 9.04622 17.2862 8.91309 16.5286C8.73153 15.4956 8.53697 14.0053 8.22291 13.0267L8.21741 13.01C8.27259 12.8549 8.95578 12.1604 9.12103 11.976Z" fill="#90DA0B"/>
<path d="M19.7768 5.52183C20.7417 5.44168 21.2141 6.12383 21.8171 6.73305L24.641 9.56948C24.8705 9.79386 25.129 10.0072 25.3226 10.2642C26.1723 11.3923 25.3882 12.1794 24.6456 12.9083L21.8288 15.7104C21.3492 16.18 21.0068 16.6409 20.2971 16.7165C19.5262 16.7436 19.2086 16.4599 18.7079 15.9653L15.1826 12.4517C14.5481 11.8188 13.9758 10.9402 14.6565 10.0611C14.8793 9.7733 15.2216 9.4918 15.4821 9.22698L17.6868 7.0218C18.3343 6.38511 18.8228 5.62814 19.7768 5.52183ZM15.608 10.2739L15.6174 10.291C15.7019 10.4469 15.7623 10.6165 15.8345 10.7784C16.4676 12.1995 18.3443 13.6984 19.4063 14.9699C19.6045 15.2071 19.9291 15.5318 19.9286 15.8585C20.5513 16.0042 20.8043 15.589 21.203 15.1936L22.2021 14.1944C22.9737 13.417 23.769 12.6617 24.5356 11.8795C25.1898 11.2122 24.6507 10.7306 24.1363 10.2199L21.3116 7.38117C20.8504 6.91561 20.4935 6.30836 19.7923 6.33873C19.3914 6.35605 19.1652 6.69442 18.9043 6.95261C17.8171 8.02873 16.6445 9.16686 15.608 10.2739Z" fill="#06222A"/>
<path d="M19.9286 15.8585C19.5229 15.776 19.1026 15.1923 18.8231 14.9136L15.8479 11.9284C15.3188 11.3917 14.8537 10.9227 15.608 10.2739L15.6174 10.291C15.7019 10.4469 15.7623 10.6165 15.8345 10.7784C16.4676 12.1995 18.3443 13.6984 19.4063 14.9699C19.6045 15.2071 19.9291 15.5318 19.9286 15.8585Z" fill="#D9E7E2"/>
<path d="M18.802 8.725C19.3857 8.65875 19.7403 9.17937 20.0931 9.56093C21.0061 8.56656 21.3452 8.23843 22.42 9.56662C22.9238 10.1891 22.2076 10.7887 21.7359 11.1498C22.1927 11.5209 22.8732 12.0614 22.4636 12.699C22.2901 12.969 21.7193 13.5745 21.3632 13.6536C20.8304 13.7389 20.4307 13.1622 20.0931 12.8191C19.676 13.2465 19.1161 13.9816 18.5071 13.5324C18.2945 13.3756 17.8844 12.9619 17.7519 12.7377C17.347 12.0529 18.148 11.6202 18.5 11.1624L18.5095 11.1498C18.0621 10.8191 17.2954 10.1139 17.7655 9.5125C17.9979 9.21518 18.4345 8.76481 18.802 8.725Z" fill="#06222A"/>
<path d="M18.9238 9.53052C19.1556 9.61852 19.7016 10.5253 20.0498 10.5755C20.3973 10.6255 21.0035 9.75371 21.2863 9.53052C21.4014 9.72408 21.5685 9.86652 21.7359 10.013C21.4347 10.2972 20.5351 10.9651 20.8323 11.3888C21.0051 11.635 21.4969 12.0577 21.7359 12.2791C21.5963 12.44 21.4366 12.5888 21.2863 12.7398C21.1126 12.916 20.5571 11.894 20.0931 11.7616C19.6987 11.855 19.1633 12.5096 18.9238 12.8191C18.8038 12.6439 18.6592 12.4964 18.5095 12.3471C18.7082 12.0961 19.5248 11.4438 19.4642 11.125C19.4171 10.8776 18.6764 10.1684 18.4542 10.013C18.5853 9.81508 18.7321 9.67052 18.9238 9.53052Z" fill="#90DA0B"/>
</svg>
