<?xml version="1.0" encoding="utf-8" ?>
<svg xmlns="http://www.w3.org/2000/svg" xmlns:xlink="http://www.w3.org/1999/xlink" width="50" height="50">
	<path fill="#06222A" transform="scale(0.0976562 0.0976562)" d="M198.955 45.2866C211.027 44.6957 212.511 59.6047 201.871 62.4526C190.147 63.5656 188.143 48.0932 198.955 45.2866Z"/>
	<path fill="#06222A" transform="scale(0.0976562 0.0976562)" d="M431.65 416.094C442.854 416.793 443.156 432.19 431.65 433.531C419.855 432.443 419.954 417.377 431.65 416.094Z"/>
	<path fill="#06222A" transform="scale(0.0976562 0.0976562)" d="M460.045 251.062C471.716 249.835 475.021 265.404 463.915 268.437C452.596 270.05 449.719 254.582 460.045 251.062Z"/>
	<path fill="#06222A" transform="scale(0.0976562 0.0976562)" d="M303.632 450.289C315.589 449.258 319.049 463.977 308.121 467.372C297.414 470.395 291.355 455.414 303.632 450.289Z"/>
	<path fill="#2A9A0A" transform="scale(0.0976562 0.0976562)" d="M97.2522 101.468C100.314 98.216 107.74 92.3755 109.059 100.789C109.532 103.804 106.456 106.284 104.785 108.489C109.27 111.729 111.07 116.847 105.231 119.406C101.884 119.611 99.5858 116.558 97.2522 114.559C95.2678 117.069 93.9702 118.504 90.8284 119.406C82.6707 116.663 86.9317 111.542 90.8284 107.248C85.9463 104.272 83.3936 98.2134 90.8284 96.5436C93.7185 97.0079 95.6146 99.2392 97.2522 101.468Z"/>
	<path fill="#2A9A0A" transform="scale(0.0976562 0.0976562)" d="M451.544 69.5514C459.837 70.3274 455.664 77.7843 451.544 81.4075C463.124 92.8145 449.96 96.6939 444.925 88.3495C442.718 89.7599 440.889 92.1737 438.414 93.0356C429.741 93.301 432.797 85.6455 438.414 81.4075C432.668 77.9008 430.36 70.1166 437.105 69.7941C440.62 69.6261 442.626 72.2877 444.925 74.5025C446.987 72.1192 448.246 70.1624 451.544 69.5514Z"/>
	<path fill="#06222A" transform="scale(0.0976562 0.0976562)" d="M387.455 300.251C394.333 299.71 429.132 299.663 432.341 301.232C438.028 304.013 435.97 311.458 429.997 313.247L402.018 313.229C396.672 313.225 384.262 315.472 382.18 308.582C380.989 304.638 383.803 301.294 387.455 300.251Z"/>
	<path fill="#06222A" transform="scale(0.0976562 0.0976562)" d="M360.459 347.259C370.782 346.797 373.197 366.422 376.1 375.072C378.757 382.99 386.728 395.345 377.132 400.031C367.204 401.607 364.126 380.588 361.554 372.866C359.129 365.586 350.508 350.64 360.459 347.259Z"/>
	<path fill="#06222A" transform="scale(0.0976562 0.0976562)" d="M385.825 327.288C386.932 327.234 388.061 327.284 389.169 327.288C391.966 328.829 425.074 360.603 425.955 362.723C427.69 366.895 424.781 370.368 421.128 371.972C414.387 371.835 408.275 363.108 403.754 358.777L390.026 345.631C386.929 342.644 382.914 339.549 380.762 335.83C380.636 331.526 381.769 329.223 385.825 327.288Z"/>
	<path fill="#06222A" transform="scale(0.0976562 0.0976562)" d="M314.992 41.3371C328.272 40.5784 335.656 51.7671 344.119 60.1525L434.471 150.815C445.146 161.661 467.302 176.762 453.832 193.555C451.823 196.06 449.382 198.279 447.096 200.534L393.794 252.79C386.793 259.646 380.059 266.783 373.174 273.755L345.56 301.294C339.715 307.115 334.09 313.1 328.009 318.681L328.012 354.711C328.017 362.518 328.872 372.317 327.052 379.824C321.948 400.872 305.508 404.216 287.573 404.151L203.376 404.128C201.737 406.036 199.926 407.814 197.95 409.373C212.636 420.551 208.87 429.837 198.068 440.575L177.095 461.548C174.06 464.593 170.934 468.186 167.295 470.492C156.595 476.037 149.723 467.567 142.875 460.824L55.6996 373.8C52.3625 370.508 48.452 367.343 45.7529 363.502C36.2746 350.014 48.2199 340.569 56.4474 332.093L68.8549 319.511C80.4423 307.695 93.1307 298.381 104.785 316.292C107.978 312.559 111.455 309.065 114.86 305.526C113.216 299.223 112.263 292.659 111.073 286.254L99.2722 222.188C98.4923 217.737 97.2161 212.942 97.1828 208.421C97.0853 195.191 106.331 182.755 119.206 179.428C126.327 177.588 136.003 178.385 143.445 178.385L175.538 178.397C177.367 171.866 181.735 168.392 186.373 163.765L296.967 52.6471C302.613 46.9116 306.501 42.4154 314.992 41.3371ZM329.136 64.7016C328.257 65.0245 327.849 65.015 326.948 64.7016C315.629 65.0149 309.462 70.6545 301.839 78.0357C292.25 87.3208 282.848 96.8736 273.396 106.304L224.6 155.22C217.796 161.954 203.985 172.335 204.258 182.712C204.707 199.747 227.478 210.2 233.46 221.695C232.58 224.274 231.54 226.407 229.527 228.306C222.126 236.769 211.643 246.582 203.474 254.715C200.351 257.824 196.719 260.6 194.075 264.141C195.635 264.769 198.792 269.648 200.048 271.063C205.996 277.769 213.175 283.542 218.621 290.665C224.159 285.309 251.884 255.596 257.244 253.736L257.718 253.692C259.336 253.535 260.921 253.118 262.547 253.019C273.237 252.363 291.552 272.95 299.395 281.076C305.405 287.304 312.845 296.773 321.356 299.547C322.646 299.967 326.098 300.413 326.948 301.065C337.043 291.439 346.689 281.451 356.523 271.572L430.109 198.711C436.978 191.971 445.65 187.914 444.124 178.397C440.534 175.494 437.308 171.975 434.041 168.713L352.325 86.9468C348.195 82.805 333.437 66.8292 329.136 64.7016ZM77.5135 329.658L174.04 426.452C177.342 429.753 180.94 432.785 183.806 436.488C187.033 433.448 192.162 428.954 194.075 424.979L193.87 424.592C191.117 419.33 175.124 404.387 169.982 399.281L141.57 370.905C125.49 354.887 109.814 338.4 93.509 322.612C86.5205 315.846 82.8798 323.539 77.5135 329.658ZM326.948 62.4526C326.533 63.3976 326.464 63.8007 326.948 64.7016C327.849 65.015 328.257 65.0245 329.136 64.7016L326.948 62.4526Z"/>
	<path fill="#ECF524" transform="scale(0.0976562 0.0976562)" d="M300.833 316.292C305.634 319.015 309.465 320.972 314.992 321.742L314.992 365.289C310.276 365.395 305.553 365.168 300.833 365.289C300.834 359.95 300.501 317.2 300.833 316.292Z"/>
	<path fill="#D9E7E2" transform="scale(0.0976562 0.0976562)" d="M194.075 264.141C195.635 264.769 198.792 269.648 200.048 271.063C205.996 277.769 213.175 283.542 218.621 290.665C213.104 296.611 207.355 301.588 198.532 300.433C178.985 297.874 177.852 276.094 194.075 264.141Z"/>
	<path fill="#D9E7E2" transform="scale(0.0976562 0.0976562)" d="M257.244 253.736L257.718 253.692C259.336 253.535 260.921 253.118 262.547 253.019C273.237 252.363 291.552 272.95 299.395 281.076C305.405 287.304 312.845 296.773 321.356 299.547C322.646 299.967 326.098 300.413 326.948 301.065C314.391 316.218 310.45 306.556 299.276 295.439L282.117 278.267C276.686 272.851 261.823 256.315 257.244 253.736Z"/>
	<path fill="#D9E7E2" transform="scale(0.0976562 0.0976562)" d="M229.527 228.306C223.964 224.104 218.634 217.287 213.646 212.279L198.504 197.322C192.593 191.489 183.715 185.569 191.525 177.156C195.583 172.786 200.021 168.696 204.216 164.45L299.652 68.5419C307.906 60.0746 317.238 45.2754 326.948 62.4526C326.533 63.3976 326.464 63.8007 326.948 64.7016C315.629 65.0149 309.462 70.6545 301.839 78.0357C292.25 87.3208 282.848 96.8736 273.396 106.304L224.6 155.22C217.796 161.954 203.985 172.335 204.258 182.712C204.707 199.747 227.478 210.2 233.46 221.695C232.58 224.274 231.54 226.407 229.527 228.306Z"/>
	<path fill="#2A9A0A" transform="scale(0.0976562 0.0976562)" d="M65.3131 341.696C75.29 350.973 84.7312 360.883 94.2711 370.605L158.583 434.507C163.128 439.037 167.983 443.077 172.124 448.016C168.474 451.936 164.577 456.12 160.338 459.406C138.854 438.575 117.898 417.166 96.6925 396.057L73.157 372.655C70.8669 370.404 55.615 356.618 55.4944 354.085C55.3259 350.544 62.7637 344.11 65.3131 341.696Z"/>
	<path fill="#90DA0B" transform="scale(0.0976562 0.0976562)" d="M77.5135 329.658L174.04 426.452C177.342 429.753 180.94 432.785 183.806 436.488C179.965 440.381 175.979 444.133 172.124 448.016C167.983 443.077 163.128 439.037 158.583 434.507L94.2711 370.605C84.7312 360.883 75.29 350.973 65.3131 341.696C69.4855 337.793 73.4841 333.707 77.5135 329.658Z"/>
	<path fill="#2A9A0A" transform="scale(0.0976562 0.0976562)" d="M128.335 311.836C128.079 301.654 125.083 289.845 123.245 279.822C120.24 263.433 117.417 247.038 114.196 230.687C111.799 218.516 105.288 204.189 116.857 195.108C122.056 191.027 138.794 190.767 145.937 191.616C143.293 194.567 132.362 205.679 131.479 208.161L131.567 208.427C136.592 224.085 139.705 247.93 142.61 264.458C144.74 276.58 146.639 289.265 150.292 301.026C161.068 335.72 191.699 363.419 227.423 370.152C231.77 370.972 236.164 371.263 240.517 371.972C240.109 368.588 241.388 366.417 243.77 364.023C249.644 363.69 271.984 363.152 276.041 365.289C279.224 365.507 282.306 365.549 285.492 365.289C289.503 362.96 295.824 363.748 299.984 365.289L300.833 365.289C305.553 365.168 310.276 365.395 314.992 365.289C315.448 385.713 308.183 391.12 288.737 391.11L218.878 391.12C200.806 391.17 201.165 387.073 188.628 400.031C184.048 394.629 178.932 389.942 173.982 384.904L134.287 345.119C127.727 338.518 120.921 332.282 114.86 325.185C119.117 320.588 123.612 315.96 128.335 311.836Z"/>
	<path fill="#06222A" transform="scale(0.0976562 0.0976562)" d="M285.492 365.289C289.503 362.96 295.824 363.748 299.984 365.289C311.474 380.182 274.656 381.491 285.492 365.289Z"/>
	<path fill="#06222A" transform="scale(0.0976562 0.0976562)" d="M243.77 364.023C249.644 363.69 271.984 363.152 276.041 365.289C277.43 368.219 278.032 370.57 276.908 373.737L276.797 374.041C272.131 378.556 255.127 376.647 248.314 376.528C244.575 376.462 242.219 375.312 240.517 371.972C240.109 368.588 241.388 366.417 243.77 364.023Z"/>
	<path fill="#90DA0B" transform="scale(0.0976562 0.0976562)" d="M145.937 191.616C156.262 191.413 166.603 191.853 176.927 191.616C180.835 200.014 184.543 201.599 189.788 208.161C195.169 211.395 205.442 223.471 211.017 228.306L186.635 252.756C177.267 262.109 169.286 267.911 169.213 282.755C169.067 312.636 204.641 324.338 227.055 301.042C234.982 292.803 248.446 277.947 257.244 271.452C260.062 275.34 264.091 278.797 267.464 282.221C272.662 287.497 298.102 311.124 300.833 316.292C300.501 317.2 300.834 359.95 300.833 365.289L299.984 365.289C295.824 363.748 289.503 362.96 285.492 365.289C282.306 365.549 279.224 365.507 276.041 365.289C271.984 363.152 249.644 363.69 243.77 364.023C241.388 366.417 240.109 368.588 240.517 371.972C236.164 371.263 231.77 370.972 227.423 370.152C191.699 363.419 161.068 335.72 150.292 301.026C146.639 289.265 144.74 276.58 142.61 264.458C139.705 247.93 136.592 224.085 131.567 208.427L131.479 208.161C132.362 205.679 143.293 194.567 145.937 191.616Z"/>
	<path fill="#06222A" transform="scale(0.0976562 0.0976562)" d="M316.428 88.3495C331.867 87.0671 339.425 97.9816 349.074 107.729L394.255 153.112C397.927 156.702 402.063 160.116 405.161 164.228C418.757 182.277 406.211 194.871 394.329 206.533L349.26 251.366C341.587 258.88 336.109 266.254 324.754 267.465C312.419 267.898 307.338 263.358 299.326 255.445L242.922 199.227C232.77 189.101 223.613 175.043 234.503 160.978C238.068 156.373 243.546 151.869 247.713 147.632L282.988 112.349C293.348 102.162 301.165 90.0505 316.428 88.3495ZM249.727 164.383L249.878 164.656C251.23 167.15 252.196 169.864 253.351 172.454C263.482 195.192 293.508 219.174 310.5 239.518C313.671 243.314 318.866 248.509 318.857 253.736C328.821 256.067 332.869 249.424 339.248 243.098L355.234 227.11C367.579 214.672 380.304 202.588 392.57 190.073C403.036 179.395 394.411 171.69 386.18 163.518L340.986 118.099C333.606 110.65 327.895 100.934 316.677 101.42C310.262 101.697 306.643 107.111 302.469 111.242C285.073 128.46 266.311 146.67 249.727 164.383Z"/>
	<path fill="#D9E7E2" transform="scale(0.0976562 0.0976562)" d="M318.857 253.736C312.366 252.416 305.642 243.077 301.169 238.618L253.566 190.854C245.1 182.268 237.659 174.764 249.727 164.383L249.878 164.656C251.23 167.15 252.196 169.864 253.351 172.454C263.482 195.192 293.508 219.174 310.5 239.518C313.671 243.314 318.866 248.509 318.857 253.736Z"/>
	<path fill="#06222A" transform="scale(0.0976562 0.0976562)" d="M300.833 139.6C310.172 138.54 315.845 146.87 321.49 152.975C336.098 137.065 341.523 131.815 358.721 153.066C366.781 163.025 355.322 172.62 347.775 178.397C355.083 184.334 365.972 192.983 359.418 203.184C356.642 207.504 347.509 217.192 341.812 218.458C333.286 219.823 326.891 210.595 321.49 205.105C314.817 211.944 305.858 223.706 296.114 216.518C292.712 214.009 286.151 207.39 284.03 203.804C277.552 192.846 290.369 185.924 296.001 178.599L296.153 178.397C288.994 173.106 276.726 161.823 284.248 152.2C287.966 147.443 294.952 140.237 300.833 139.6Z"/>
	<path fill="#90DA0B" transform="scale(0.0976562 0.0976562)" d="M302.781 152.488C306.49 153.896 315.226 168.405 320.797 169.207C326.358 170.007 336.057 156.059 340.582 152.488C342.423 155.585 345.096 157.864 347.775 160.208C342.955 164.755 328.562 175.442 333.317 182.22C336.082 186.16 343.951 192.923 347.775 196.465C345.542 199.04 342.986 201.42 340.582 203.837C337.802 206.656 328.914 190.303 321.49 188.186C315.18 189.68 306.614 200.154 302.781 205.105C300.861 202.302 298.548 199.942 296.153 197.553C299.331 193.538 312.398 183.101 311.427 178C310.674 174.041 298.823 162.694 295.268 160.208C297.366 157.041 299.714 154.728 302.781 152.488Z"/>
</svg>
